<?xml version="1.0" encoding="iso-8859-1"?>
<!-- Uploaded to: SVG Repo, www.svgrepo.com, Generator: SVG Repo Mixer Tools -->
<svg fill="#FFFFFF" height="400px" width="400px" version="1.1" id="Capa_1" xmlns="http://www.w3.org/2000/svg" xmlns:xlink="http://www.w3.org/1999/xlink" 
	 viewBox="0 0 30.332 30.332" xml:space="preserve">
<g>
	<path d="M4.826,6.811L3.84,5.106C2.44,6.68,1.354,8.54,0.703,10.599h1.934L4.826,6.811z"/>
	<path d="M4.826,15.155l-2.189-3.789H0.5C0.186,12.58,0,13.85,0,15.164c0,1.307,0.184,2.57,0.494,3.777h2.143L4.826,15.155z"/>
	<path d="M2.377,19.906H0.768c0.639,1.943,1.66,3.705,2.975,5.213l0.82-1.424L2.377,19.906z"/>
	<path d="M20.535,24.374l-2.188,3.791l0.918,1.592c2.508-0.705,4.754-2.025,6.557-3.805l-0.912-1.578
		C24.91,24.374,20.535,24.374,20.535,24.374z"/>
	<path d="M12.98,28.445l-0.908,1.566c1,0.211,2.033,0.318,3.094,0.318s2.096-0.107,3.094-0.318l-0.904-1.566H12.98z"/>
	<path d="M9.932,24.374H5.555L4.6,26.031c1.812,1.766,4.068,3.066,6.582,3.752l0.936-1.619L9.932,24.374z"/>
	<path d="M27.959,10.598h1.672c-0.625-1.98-1.652-3.779-2.979-5.316l-0.881,1.529L27.959,10.598z"/>
	<path d="M25.771,15.155l2.188,3.787h1.881c0.311-1.207,0.492-2.471,0.492-3.777c0-1.314-0.184-2.584-0.498-3.799h-1.875
		L25.771,15.155z"/>
	<path d="M9.932,6.525l2.186-3.789l-1.223-2.119C8.398,1.352,6.17,2.701,4.387,4.502l1.168,2.023H9.932z"/>
	<path d="M20.535,6.525h4.375l1.117-1.936c-1.77-1.816-3.984-3.188-6.475-3.939l-1.205,2.086L20.535,6.525z"/>
	<path d="M17.355,2.061l0.992-1.721c-1.025-0.221-2.089-0.338-3.181-0.338s-2.154,0.117-3.178,0.338l0.992,1.721H17.355z"/>
	<path d="M25.771,23.695l0.82,1.424c1.314-1.508,2.336-3.27,2.975-5.213h-1.607L25.771,23.695z"/>
	<polygon points="17.016,10.016 18.865,6.811 17.016,3.606 13.316,3.606 11.467,6.811 13.316,10.016 	"/>
	<polygon points="9.539,14.127 11.338,11.018 9.539,7.904 5.947,7.904 4.148,11.018 5.947,14.127 	"/>
	<polygon points="9.602,16.403 5.883,16.403 4.025,19.621 5.883,22.842 9.602,22.842 11.461,19.621 	"/>
	<polygon points="20.951,16.557 19.184,19.621 20.951,22.688 24.492,22.688 26.26,19.621 24.492,16.557 	"/>
	<polygon points="13.316,20.488 11.463,23.695 13.316,26.903 17.02,26.903 18.873,23.695 17.02,20.488 	"/>
	<polygon points="13.043,11.475 10.918,15.155 13.043,18.836 17.293,18.836 19.416,15.155 17.293,11.475 	"/>
	<polygon points="20.926,14.127 24.52,14.127 26.316,11.018 24.52,7.904 20.926,7.904 19.129,11.018 	"/>
	<g>
	</g>
	<g>
	</g>
	<g>
	</g>
	<g>
	</g>
	<g>
	</g>
	<g>
	</g>
	<g>
	</g>
	<g>
	</g>
	<g>
	</g>
	<g>
	</g>
	<g>
	</g>
	<g>
	</g>
	<g>
	</g>
	<g>
	</g>
	<g>
	</g>
</g>
</svg>