<!DOCTYPE svg PUBLIC "-//W3C//DTD SVG 20010904//EN" "http://www.w3.org/TR/2001/REC-SVG-20010904/DTD/svg10.dtd">
<svg version="1.0" xmlns="http://www.w3.org/2000/svg" width="528px" height="528px" viewBox="0 0 5280 5280" preserveAspectRatio="xMidYMid meet">
<g id="layer1" fill="#4fe38b" stroke="none">
 <path d="M2653 5142 c-22 -21 -47 -73 -63 -127 -14 -47 -9 -130 15 -290 30 -191 21 -337 -24 -422 -11 -21 -33 -74 -49 -118 -62 -169 -63 -176 -61 -333 2 -99 -1 -154 -9 -169 -7 -12 -12 -32 -12 -45 0 -13 -11 -50 -24 -83 -13 -33 -31 -87 -41 -120 -9 -33 -31 -98 -47 -145 -31 -87 -52 -171 -68 -273 -6 -33 -13 -64 -17 -70 -23 -36 -34 -359 -15 -437 19 -78 40 -148 51 -169 6 -11 11 -31 11 -44 0 -13 8 -46 19 -73 38 -102 44 -121 53 -179 24 -146 8 -298 -36 -345 -14 -14 -39 -61 -57 -105 l-31 -79 15 -61 c9 -33 21 -79 28 -102 6 -23 9 -53 5 -66 -6 -27 -113 -117 -138 -117 -10 0 -27 -9 -38 -20 -11 -11 -23 -20 -26 -20 -3 0 -20 -6 -37 -14 -18 -8 -61 -27 -97 -41 -152 -63 -346 -176 -415 -243 -26 -26 -245 -112 -283 -112 -24 0 -224 -123 -526 -322 -70 -47 -105 -58 -180 -59 -106 -1 -186 -13 -197 -30 -15 -24 -11 -116 7 -133 8 -9 18 -16 22 -16 7 0 231 108 323 156 26 13 52 24 59 24 6 0 35 11 63 23 29 13 72 32 97 41 25 10 63 26 85 37 22 10 74 31 115 47 41 16 129 50 195 76 66 25 130 46 141 46 12 0 33 9 47 20 14 11 29 20 35 20 5 0 43 16 84 35 69 32 208 83 283 105 54 16 120 41 132 52 7 6 39 16 71 23 31 7 91 27 132 43 68 28 126 43 218 59 30 5 32 3 32 -23 0 -16 -18 -65 -39 -109 -21 -44 -44 -96 -50 -116 -40 -130 41 -344 147 -390 24 -11 58 -19 75 -19 81 0 185 71 205 140 6 19 20 60 31 90 36 94 30 142 -40 305 -48 110 -50 129 -11 122 15 -3 59 -12 98 -20 39 -7 106 -27 150 -44 100 -39 197 -73 299 -106 81 -26 187 -64 305 -110 36 -14 124 -47 195 -75 72 -27 144 -56 160 -65 17 -8 53 -22 80 -31 84 -29 152 -55 207 -80 47 -21 115 -47 243 -92 22 -8 58 -23 80 -33 63 -31 284 -111 305 -111 22 0 30 19 30 75 0 44 -1 44 -42 55 -24 5 -57 15 -74 20 -17 6 -64 10 -105 10 -77 1 -95 7 -180 64 -24 17 -71 44 -104 61 -33 18 -81 45 -105 61 -58 37 -116 70 -160 90 -19 8 -55 25 -80 36 -25 11 -74 31 -108 44 -69 25 -112 49 -112 64 0 5 -8 11 -19 15 -10 3 -32 18 -49 33 -16 15 -47 39 -68 54 -49 35 -234 128 -254 128 -8 0 -37 11 -65 24 -52 25 -184 71 -245 86 -37 9 -126 52 -170 82 -33 23 -55 80 -41 107 6 11 11 30 11 43 0 13 7 34 16 47 12 17 15 39 12 89 -3 60 -9 76 -52 145 -81 129 -85 182 -38 452 12 74 55 193 98 277 8 14 14 38 14 52 0 15 11 54 25 88 24 58 25 72 25 252 0 151 -4 201 -16 236 -9 25 -23 79 -30 120 -19 113 -56 269 -68 288 -6 10 -12 36 -42 177 -30 141 -35 173 -48 310 -14 142 -24 193 -44 232 -7 12 -12 31 -12 42 0 11 -6 40 -14 63 -50 157 -49 151 -43 363 3 118 10 211 16 223 6 11 11 65 11 120 0 106 -16 163 -60 210 -25 27 -73 29 -97 4z"/>
 </g>

</svg>